<svg width="132" height="50" viewBox="0 0 132 50" fill="none" xmlns="http://www.w3.org/2000/svg">
<rect x="0.216797" width="131.783" height="50" rx="8" fill="#212529"/>
<path d="M42.3883 31.2184C41.8567 32.4013 41.6025 32.9289 40.9168 33.9745C39.9615 35.4337 38.6133 37.2524 36.9453 37.2679C35.4623 37.2814 35.0809 36.2996 33.0682 36.3112C31.0555 36.3228 30.6357 37.2853 29.1526 37.2718C27.4847 37.2563 26.2077 35.6154 25.2524 34.1542C22.5791 30.0723 22.3017 25.281 23.9485 22.7356C25.1195 20.9246 26.9666 19.8655 28.7039 19.8655C30.472 19.8655 31.5852 20.8396 33.0471 20.8396C34.4665 20.8396 35.3313 19.8655 37.3749 19.8655C38.9215 19.8655 40.5586 20.7101 41.7258 22.1712C37.9026 24.2721 38.5247 29.7534 42.3883 31.2184Z" fill="white"/>
<path d="M35.826 18.2348C36.5695 17.2781 37.1338 15.9251 36.9277 14.5452C35.7143 14.6283 34.2949 15.4033 33.4647 16.4141C32.7117 17.3322 32.0915 18.6909 32.3322 20.0129C33.6593 20.0535 35.0306 19.2591 35.826 18.2348Z" fill="white"/>
<path d="M50.5296 22.6746L46.7007 33.9811H48.4534L49.5955 30.5099H53.3012L54.4761 33.9811H56.2769L52.4326 22.6746H50.5296V22.6746ZM51.4368 24.5339C51.5658 25.0383 51.7064 25.5621 51.8856 26.1284L52.9179 29.1261H49.9826L50.9996 26.109C51.1537 25.6201 51.3001 25.0924 51.4368 24.5339Z" fill="white"/>
<path d="M61.2332 25.6062C60.0718 25.6062 59.1415 26.0565 58.5233 26.9108L58.4558 25.7859H56.8958L56.9054 25.929C56.9516 26.6306 56.9709 27.4017 56.9709 28.5073V37.222H58.6754V33.1555C59.2051 33.7914 60.0487 34.1605 61.0059 34.1605C62.0017 34.1605 62.9204 33.7682 63.5887 33.0589C64.336 32.2664 64.7289 31.128 64.7289 29.7674C64.7289 28.5652 64.3861 27.5254 63.7389 26.762C63.1034 26.0159 62.2135 25.6062 61.2332 25.6062ZM60.8075 27.021C62.3272 27.021 63.0071 28.4338 63.0071 29.8331C63.0071 31.6383 62.1384 32.7612 60.742 32.7612C59.7887 32.7612 58.9643 32.1099 58.7332 31.1744C58.6927 31.0295 58.6735 30.8381 58.6735 30.6197V29.2436C58.6735 29.1199 58.7004 28.9672 58.7274 28.8223C58.7351 28.7759 58.7447 28.7295 58.7525 28.6831C59.0067 27.7052 59.8503 27.021 60.8075 27.021Z" fill="white"/>
<path d="M70.0137 25.6062C68.8523 25.6062 67.9221 26.0565 67.3038 26.9108L67.2364 25.7859H65.6782L65.6859 25.929C65.7322 26.6306 65.7514 27.4017 65.7514 28.5073V37.222H67.456V33.1555C67.9856 33.7914 68.8292 34.1605 69.7865 34.1605C70.7822 34.1605 71.7009 33.7682 72.3712 33.0589C73.1166 32.2664 73.5114 31.128 73.5114 29.7674C73.5114 28.5652 73.1686 27.5254 72.5195 26.762C71.8839 26.0159 70.9941 25.6062 70.0137 25.6062ZM69.5881 27.021C71.1077 27.021 71.7876 28.4338 71.7876 29.8331C71.7876 31.6383 70.919 32.7612 69.5226 32.7612C68.5692 32.7612 67.7429 32.1099 67.5137 31.1744C67.4733 31.0295 67.454 30.8381 67.454 30.6197V29.2436C67.454 29.118 67.481 28.9672 67.508 28.8204C67.5157 28.774 67.5253 28.7276 67.533 28.6831C67.7872 27.7052 68.6308 27.021 69.5881 27.021Z" fill="white"/>
<path d="M81.0108 27.4654C79.4199 26.8469 78.9095 26.3618 78.9095 25.4631C78.9095 24.7074 79.5085 23.9439 80.8471 23.9439C81.9507 23.9439 82.6575 24.3286 82.8482 24.4484L82.9927 24.5373L83.4742 23.109L83.3798 23.0529C83.0948 22.8848 82.28 22.4944 80.8972 22.4944C78.7227 22.4944 77.2049 23.7816 77.2049 25.6254C77.2049 27.1117 78.1564 28.1515 80.198 28.8956C81.6445 29.4387 82.1837 29.9934 82.1837 30.9463C82.1837 32.0247 81.3536 32.6935 80.017 32.6935C79.1464 32.6935 78.2508 32.4383 77.5593 31.9938L77.411 31.8991L76.9526 33.3603L77.0374 33.4163C77.6807 33.8473 78.8922 34.1604 79.9187 34.1604C82.8482 34.1604 83.8883 32.3668 83.8883 30.8322C83.8864 29.2513 83.0524 28.2733 81.0108 27.4654Z" fill="white"/>
<path d="M86.9556 23.8376L85.2838 24.3653V25.7858H84.0588V27.1523H85.2838V31.3406C85.2838 32.3533 85.4764 33.0626 85.8732 33.511C86.2545 33.9304 86.84 34.1604 87.5218 34.1604C88.1671 34.1604 88.6235 34.0329 88.8392 33.9556L88.9355 33.9208L88.8547 32.5505L88.6909 32.6007C88.4752 32.6664 88.2537 32.6935 87.8974 32.6935C87.2368 32.6935 86.9556 32.2741 86.9556 31.2903V27.1504H89.0126V25.7839H86.9556V23.8376V23.8376Z" fill="white"/>
<path d="M93.2367 25.6062C90.8523 25.6062 89.1863 27.3921 89.1863 29.9491C89.1863 32.4288 90.7984 34.1625 93.1077 34.1625H93.1231C95.0742 34.1625 97.1735 32.7979 97.1735 29.8022C97.1735 28.5846 96.798 27.5389 96.0873 26.7755C95.3708 26.0101 94.3846 25.6062 93.2367 25.6062ZM93.1866 26.9553C94.7198 26.9553 95.4189 28.4551 95.4189 29.8505C95.4189 31.5648 94.4655 32.8095 93.1539 32.8095H93.1366C91.8442 32.8095 90.9043 31.5861 90.9043 29.8988C90.9062 28.4357 91.6112 26.9553 93.1866 26.9553Z" fill="white"/>
<path d="M102.392 25.6854L102.29 25.6603C102.14 25.6236 102.017 25.6062 101.867 25.6062C100.975 25.6062 100.174 26.1338 99.7288 26.9842L99.6787 25.7879H98.1494L98.159 25.9309C98.2053 26.6074 98.2226 27.3689 98.2226 28.3951L98.2072 33.9846H99.9117V29.6244C99.9117 29.3866 99.9271 29.1625 99.9579 28.9614C100.151 27.9139 100.854 27.2374 101.751 27.2374C101.926 27.2374 102.063 27.251 102.209 27.2664L102.392 27.2858V25.6854V25.6854Z" fill="white"/>
<path d="M106.226 25.5886C103.957 25.5886 102.372 27.4073 102.372 30.0146C102.372 32.5233 103.949 34.1449 106.39 34.1449C107.672 34.1449 108.566 33.8627 109.088 33.625L109.19 33.5786L108.863 32.303L108.72 32.361C108.256 32.5504 107.638 32.7436 106.584 32.7436C105.843 32.7436 104.136 32.4982 104.03 30.2639L109.533 30.2813L109.556 30.1712C109.591 29.9972 109.608 29.7633 109.608 29.458C109.608 27.6741 108.724 25.5886 106.226 25.5886ZM106.112 26.8913C106.632 26.8913 107.052 27.0517 107.364 27.3706C107.855 27.8712 107.94 28.6095 107.952 28.9632H104.063C104.223 27.9736 104.837 26.8913 106.112 26.8913Z" fill="white"/>
<path d="M46.7014 14.9505C47.1771 14.8867 47.7299 14.8403 48.3366 14.8403C49.4364 14.8403 50.2183 15.0626 50.7364 15.4994C51.2719 15.9362 51.58 16.5624 51.58 17.4283C51.58 18.3019 51.2719 19.0151 50.7268 19.5079C50.1644 20.0085 49.2495 20.2791 48.0978 20.2791C47.5431 20.2791 47.0962 20.2636 46.6995 20.2153V14.9505H46.7014ZM47.4757 19.6896C47.6683 19.7205 47.9495 19.7205 48.2499 19.7205C49.8851 19.7282 50.773 18.8952 50.773 17.4495C50.7827 16.172 49.991 15.3854 48.3732 15.3854C47.9783 15.3854 47.6779 15.4182 47.4757 15.4569V19.6896V19.6896Z" fill="white"/>
<path d="M54.3214 20.3172C53.1773 20.3172 52.2817 19.5557 52.2817 18.34C52.2817 17.0528 53.2216 16.2991 54.3907 16.2991C55.6138 16.2991 56.44 17.1012 56.44 18.2685C56.44 19.6968 55.3403 20.3172 54.331 20.3172H54.3214ZM54.3484 19.7915C55.086 19.7915 55.6407 19.1634 55.6407 18.2917C55.6407 17.6404 55.2806 16.8228 54.3657 16.8228C53.4605 16.8228 53.0637 17.5843 53.0637 18.3149C53.0637 19.1557 53.5914 19.7915 54.3387 19.7915H54.3484Z" fill="white"/>
<path d="M57.6664 16.386L58.2384 18.3323C58.3521 18.7613 58.4676 19.1653 58.5466 19.5634H58.5735C58.6698 19.1749 58.8104 18.7613 58.951 18.34L59.6463 16.386H60.2973L60.956 18.3071C61.114 18.7594 61.2372 19.173 61.3335 19.5615H61.3605C61.4318 19.173 61.5454 18.7671 61.686 18.3149L62.2927 16.386H63.0573L61.686 20.2283H60.983L60.332 18.3941C60.1818 17.9573 60.0585 17.5766 59.9545 17.1243H59.9372C59.8312 17.5843 59.7003 17.9902 59.55 18.4018L58.8644 20.2283H58.1614L56.8767 16.386H57.6664V16.386Z" fill="white"/>
<path d="M63.8294 17.4259C63.8294 17.02 63.8197 16.703 63.7947 16.386H64.4804L64.5246 17.0142H64.542C64.7538 16.6566 65.245 16.2991 65.948 16.2991C66.5374 16.2991 67.4522 16.616 67.4522 17.9342V20.2283H66.6799V18.0134C66.6799 17.3949 66.4237 16.8712 65.6957 16.8712C65.1949 16.8712 64.7981 17.1959 64.6575 17.5863C64.6229 17.6733 64.6055 17.8008 64.6055 17.911V20.2303H63.8313V17.4259H63.8294Z" fill="white"/>
<path d="M68.7095 14.5928H69.4837V20.2306H68.7095V14.5928Z" fill="white"/>
<path d="M72.4994 20.3172C71.3572 20.3172 70.4597 19.5557 70.4597 18.34C70.4597 17.0528 71.3996 16.2991 72.5707 16.2991C73.7918 16.2991 74.618 17.1012 74.618 18.2685C74.618 19.6968 73.5183 20.3172 72.5071 20.3172H72.4994ZM72.5264 19.7915C73.264 19.7915 73.8187 19.1634 73.8187 18.2917C73.8187 17.6404 73.4586 16.8228 72.5437 16.8228C71.6384 16.8228 71.2417 17.5843 71.2417 18.3149C71.2417 19.1557 71.7694 19.7915 72.5167 19.7915H72.5264Z" fill="white"/>
<path d="M78.5915 19.3091C78.5915 19.6415 78.6089 19.9682 78.6532 20.2291H77.9579L77.8866 19.7459H77.8616C77.6324 20.0474 77.1663 20.318 76.5596 20.318C75.6986 20.318 75.2576 19.771 75.2576 19.2144C75.2576 18.2848 76.1724 17.7764 77.8153 17.7861V17.7069C77.8153 17.3899 77.719 16.8101 76.8485 16.8178C76.444 16.8178 76.0299 16.9202 75.7314 17.1038L75.5561 16.6361C75.9086 16.437 76.4267 16.3018 76.9621 16.3018C78.2718 16.3018 78.5877 17.1038 78.5877 17.8731V19.3091H78.5915ZM77.8346 18.2693C76.991 18.2538 76.0318 18.3891 76.0318 19.1352C76.0318 19.5952 76.365 19.802 76.7522 19.802C77.3146 19.802 77.6747 19.485 77.798 19.1584C77.825 19.0868 77.8327 19.0076 77.8327 18.9361V18.2693H77.8346Z" fill="white"/>
<path d="M83.5077 14.5928V19.2372C83.5077 19.5793 83.5174 19.9677 83.5424 20.2306H82.8471L82.8124 19.5638H82.7951C82.5582 19.9929 82.0478 20.3176 81.3525 20.3176C80.324 20.3176 79.5228 19.5309 79.5228 18.3636C79.5132 17.0763 80.403 16.2994 81.4315 16.2994C82.0921 16.2994 82.5312 16.5777 82.7161 16.8792H82.7335V14.5928H83.5077V14.5928ZM82.7354 17.9499C82.7354 17.8552 82.7277 17.7431 82.7007 17.6484C82.5871 17.2116 82.1653 16.8464 81.5836 16.8464C80.7843 16.8464 80.3086 17.4822 80.3086 18.323C80.3086 19.1096 80.74 19.7513 81.5663 19.7513C82.0844 19.7513 82.5601 19.4343 82.7007 18.9183C82.7277 18.8235 82.7354 18.7269 82.7354 18.6167V17.9499V17.9499Z" fill="white"/>
<path d="M88.3876 20.3172C87.2454 20.3172 86.3479 19.5557 86.3479 18.34C86.3479 17.0528 87.2897 16.2991 88.4588 16.2991C89.6819 16.2991 90.5081 17.1012 90.5081 18.2685C90.5081 19.6968 89.4084 20.3172 88.3991 20.3172H88.3876ZM88.4145 19.7915C89.1522 19.7915 89.7069 19.1634 89.7069 18.2917C89.7069 17.6404 89.3467 16.8228 88.4319 16.8228C87.5266 16.8228 87.1299 17.5843 87.1299 18.3149C87.1299 19.1557 87.6576 19.7915 88.4049 19.7915H88.4145Z" fill="white"/>
<path d="M91.4822 17.4259C91.4822 17.02 91.4725 16.703 91.4475 16.386H92.1332L92.1775 17.0142H92.1948C92.4067 16.6566 92.8978 16.2991 93.6008 16.2991C94.1902 16.2991 95.105 16.616 95.105 17.9342V20.2283H94.3308V18.0134C94.3308 17.3949 94.0765 16.8712 93.3466 16.8712C92.8458 16.8712 92.449 17.1959 92.3084 17.5863C92.2738 17.6733 92.2564 17.8008 92.2564 17.911V20.2303H91.4822V17.4259V17.4259Z" fill="white"/>
<path d="M99.1554 15.4663V16.3863H100.263V16.9178H99.1554V18.9897C99.1554 19.4652 99.3056 19.7357 99.7351 19.7357C99.9451 19.7357 100.068 19.7203 100.184 19.6874L100.219 20.2189C100.068 20.2672 99.8314 20.3136 99.5329 20.3136C99.1727 20.3136 98.8819 20.2015 98.697 20.0199C98.4851 19.8053 98.3985 19.4632 98.3985 19.011V16.9139H97.7397V16.3824H98.3985V15.675L99.1554 15.4663Z" fill="white"/>
<path d="M101.136 14.5928H101.911V16.9913H101.928C102.051 16.7922 102.244 16.6106 102.483 16.4985C102.712 16.3709 102.984 16.2994 103.274 16.2994C103.844 16.2994 104.759 16.6164 104.759 17.9422V20.2287H103.985V18.0215C103.985 17.3933 103.731 16.8773 103.001 16.8773C102.5 16.8773 102.113 17.1942 101.963 17.5769C101.918 17.6716 101.909 17.776 101.909 17.9113V20.2306H101.135V14.5928H101.136Z" fill="white"/>
<path d="M106.454 18.4277C106.471 19.3728 107.132 19.7613 107.904 19.7613C108.459 19.7613 108.802 19.6743 109.083 19.5699L109.224 20.0628C108.95 20.1749 108.476 20.3082 107.798 20.3082C106.496 20.3082 105.705 19.5216 105.705 18.3716C105.705 17.2042 106.469 16.292 107.71 16.292C109.099 16.292 109.459 17.3956 109.459 18.103C109.459 18.246 109.451 18.3562 109.434 18.4354L106.454 18.4277ZM108.715 17.9271C108.723 17.4903 108.513 16.7906 107.65 16.7906C106.859 16.7906 106.525 17.442 106.464 17.9271H108.715Z" fill="white"/>
</svg>
