<svg width="223" height="131" viewBox="0 0 223 131" fill="none" xmlns="http://www.w3.org/2000/svg">
<g filter="url(#filter0_d_1074_76290)">
<rect x="52.2676" y="21" width="142.733" height="50" rx="10" fill="#222831"/>
</g>
<path d="M97.9446 52.0065C97.3688 53.284 97.0935 53.8538 96.3508 54.9831C95.3162 56.559 93.8559 58.5232 92.0494 58.5399C90.4431 58.5545 90.0301 57.4942 87.8502 57.5067C85.6702 57.5192 85.2155 58.5587 83.6092 58.5441C81.8027 58.5274 80.4196 56.7552 79.3849 55.1772C76.4895 50.7687 76.1891 45.5941 77.9727 42.8451C79.241 40.8892 81.2415 39.7454 83.1231 39.7454C85.0381 39.7454 86.2439 40.7974 87.8272 40.7974C89.3646 40.7974 90.3013 39.7454 92.5146 39.7454C94.1897 39.7454 95.9628 40.6575 97.227 42.2356C93.0862 44.5045 93.76 50.4243 97.9446 52.0065Z" fill="white"/>
<path d="M90.8346 37.9848C91.6398 36.9515 92.251 35.4904 92.0278 34C90.7136 34.0898 89.1762 34.9268 88.2771 36.0185C87.4614 37.01 86.7897 38.4774 87.0505 39.9051C88.4878 39.949 89.973 39.0911 90.8346 37.9848Z" fill="white"/>
<path d="M106.763 42.7795L102.616 54.9906H104.514L105.751 51.2417H109.765L111.037 54.9906H112.988L108.824 42.7795H106.763ZM107.746 44.7876C107.885 45.3324 108.038 45.8981 108.232 46.5097L109.35 49.7471H106.171L107.272 46.4888C107.439 45.9607 107.597 45.3908 107.746 44.7876Z" fill="white"/>
<path d="M118.356 45.946C117.098 45.946 116.091 46.4324 115.421 47.355L115.348 46.1402H113.658L113.669 46.2946C113.719 47.0523 113.74 47.8852 113.74 49.0792V58.4911H115.586V54.0993C116.159 54.786 117.073 55.1847 118.11 55.1847C119.188 55.1847 120.183 54.761 120.907 53.9949C121.717 53.1391 122.142 51.9096 122.142 50.4401C122.142 49.1418 121.771 48.0188 121.07 47.1943C120.382 46.3886 119.418 45.946 118.356 45.946ZM117.895 47.474C119.541 47.474 120.277 48.9998 120.277 50.5111C120.277 52.4607 119.336 53.6734 117.824 53.6734C116.791 53.6734 115.899 52.97 115.648 51.9597C115.604 51.8032 115.584 51.5965 115.584 51.3607V49.8745C115.584 49.7409 115.613 49.576 115.642 49.4194C115.65 49.3693 115.661 49.3192 115.669 49.2691C115.945 48.2129 116.858 47.474 117.895 47.474Z" fill="white"/>
<path d="M127.865 45.946C126.608 45.946 125.6 46.4324 124.93 47.355L124.857 46.1402H123.17L123.178 46.2946C123.228 47.0523 123.249 47.8852 123.249 49.0792V58.4911H125.095V54.0993C125.669 54.786 126.582 55.1847 127.619 55.1847C128.698 55.1847 129.693 54.761 130.419 53.9949C131.226 53.1391 131.654 51.9096 131.654 50.4401C131.654 49.1418 131.282 48.0188 130.579 47.1943C129.891 46.3886 128.927 45.946 127.865 45.946ZM127.404 47.474C129.05 47.474 129.787 48.9998 129.787 50.5111C129.787 52.4607 128.846 53.6734 127.333 53.6734C126.301 53.6734 125.406 52.97 125.158 51.9597C125.114 51.8032 125.093 51.5965 125.093 51.3607V49.8745C125.093 49.7388 125.122 49.576 125.151 49.4173C125.16 49.3672 125.17 49.3171 125.179 49.2691C125.454 48.2129 126.368 47.474 127.404 47.474Z" fill="white"/>
<path d="M139.776 47.9534C138.053 47.2854 137.5 46.7615 137.5 45.7909C137.5 44.9747 138.149 44.1502 139.598 44.1502C140.794 44.1502 141.559 44.5656 141.766 44.695L141.922 44.7911L142.444 43.2485L142.342 43.188C142.033 43.0064 141.15 42.5847 139.653 42.5847C137.297 42.5847 135.654 43.9749 135.654 45.9662C135.654 47.5714 136.684 48.6944 138.895 49.498C140.462 50.0846 141.046 50.6837 141.046 51.7127C141.046 52.8775 140.147 53.5997 138.699 53.5997C137.756 53.5997 136.786 53.3242 136.037 52.8441L135.877 52.7418L135.38 54.3198L135.472 54.3804C136.169 54.8459 137.481 55.184 138.593 55.184C141.766 55.184 142.892 53.2469 142.892 51.5896C142.89 49.8821 141.987 48.8259 139.776 47.9534Z" fill="white"/>
<path d="M146.214 44.0359L144.403 44.6057V46.1399H143.076V47.6157H144.403V52.139C144.403 53.2328 144.612 53.9988 145.041 54.4831C145.454 54.9361 146.088 55.1845 146.827 55.1845C147.526 55.1845 148.02 55.0467 148.254 54.9632L148.358 54.9256L148.27 53.4457L148.093 53.5C147.86 53.5709 147.62 53.6002 147.234 53.6002C146.518 53.6002 146.214 53.1472 146.214 52.0847V47.6136H148.442V46.1379H146.214V44.0359Z" fill="white"/>
<path d="M153.018 45.946C150.436 45.946 148.631 47.8748 148.631 50.6363C148.631 53.3144 150.377 55.1868 152.878 55.1868H152.895C155.008 55.1868 157.282 53.7131 157.282 50.4777C157.282 49.1627 156.875 48.0334 156.105 47.2089C155.329 46.3823 154.261 45.946 153.018 45.946ZM152.964 47.403C154.624 47.403 155.382 49.0228 155.382 50.5299C155.382 52.3814 154.349 53.7256 152.928 53.7256H152.91C151.51 53.7256 150.492 52.4043 150.492 50.5821C150.494 49.0019 151.257 47.403 152.964 47.403Z" fill="white"/>
<path d="M162.934 46.0316L162.823 46.0045C162.661 45.9648 162.527 45.946 162.364 45.946C161.399 45.946 160.531 46.5159 160.049 47.4343L159.995 46.1423H158.338L158.349 46.2967C158.399 47.0273 158.418 47.8497 158.418 48.9581L158.401 54.9947H160.247V50.2857C160.247 50.0289 160.264 49.7868 160.297 49.5697C160.506 48.4384 161.267 47.7078 162.239 47.7078C162.429 47.7078 162.577 47.7224 162.736 47.7391L162.934 47.76V46.0316Z" fill="white"/>
<path d="M167.086 45.9265C164.629 45.9265 162.912 47.8907 162.912 50.7066C162.912 53.416 164.621 55.1672 167.264 55.1672C168.653 55.1672 169.621 54.8625 170.186 54.6057L170.297 54.5556L169.942 53.178L169.788 53.2406C169.285 53.4452 168.615 53.6539 167.474 53.6539C166.671 53.6539 164.823 53.3888 164.708 50.9758L170.668 50.9946L170.693 50.8756C170.731 50.6878 170.749 50.4352 170.749 50.1054C170.749 48.1788 169.792 45.9265 167.086 45.9265ZM166.963 47.3334C167.526 47.3334 167.981 47.5066 168.319 47.8511C168.851 48.3917 168.943 49.1891 168.955 49.571H164.744C164.917 48.5023 165.582 47.3334 166.963 47.3334Z" fill="white"/>
<path d="M102.616 34.4373C103.131 34.3685 103.73 34.3184 104.387 34.3184C105.578 34.3184 106.425 34.5584 106.986 35.0301C107.566 35.5019 107.9 36.1782 107.9 37.1133C107.9 38.0568 107.566 38.8271 106.976 39.3593C106.367 39.9 105.376 40.1922 104.128 40.1922C103.528 40.1922 103.044 40.1755 102.614 40.1233V34.4373H102.616ZM103.455 39.5555C103.663 39.5889 103.968 39.5889 104.293 39.5889C106.064 39.5973 107.026 38.6976 107.026 37.1363C107.036 35.7565 106.179 34.907 104.427 34.907C103.999 34.907 103.674 34.9425 103.455 34.9842V39.5555Z" fill="white"/>
<path d="M110.869 40.2341C109.63 40.2341 108.66 39.4117 108.66 38.0988C108.66 36.7086 109.678 35.8945 110.944 35.8945C112.269 35.8945 113.163 36.7608 113.163 38.0215C113.163 39.5641 111.972 40.2341 110.879 40.2341H110.869ZM110.898 39.6664C111.697 39.6664 112.298 38.988 112.298 38.0466C112.298 37.3432 111.908 36.4602 110.917 36.4602C109.936 36.4602 109.507 37.2826 109.507 38.0716C109.507 38.9796 110.078 39.6664 110.888 39.6664H110.898Z" fill="white"/>
<path d="M114.492 35.9883L115.112 38.0903C115.235 38.5536 115.36 38.9899 115.445 39.4199H115.475C115.579 39.0003 115.731 38.5536 115.883 38.0986L116.636 35.9883H117.342L118.055 38.0631C118.226 38.5516 118.36 38.9983 118.464 39.4178H118.493C118.57 38.9983 118.693 38.5599 118.846 38.0715L119.503 35.9883H120.331L118.846 40.1379H118.084L117.379 38.157C117.216 37.6853 117.083 37.2741 116.97 36.7857H116.951C116.837 37.2824 116.695 37.7208 116.532 38.1654L115.79 40.1379H115.028L113.637 35.9883H114.492Z" fill="white"/>
<path d="M121.166 37.1115C121.166 36.6731 121.156 36.3308 121.129 35.9885H121.871L121.919 36.6669H121.938C122.168 36.2807 122.699 35.8945 123.461 35.8945C124.099 35.8945 125.09 36.2369 125.09 37.6604V40.1381H124.254V37.746C124.254 37.0781 123.976 36.5124 123.188 36.5124C122.645 36.5124 122.216 36.8631 122.063 37.2847C122.026 37.3786 122.007 37.5164 122.007 37.6354V40.1402H121.168V37.1115H121.166Z" fill="white"/>
<path d="M126.453 34.0508H127.291V40.1396H126.453V34.0508Z" fill="white"/>
<path d="M130.558 40.2341C129.321 40.2341 128.349 39.4117 128.349 38.0988C128.349 36.7086 129.367 35.8945 130.635 35.8945C131.958 35.8945 132.852 36.7608 132.852 38.0215C132.852 39.5641 131.661 40.2341 130.566 40.2341H130.558ZM130.587 39.6664C131.386 39.6664 131.987 38.988 131.987 38.0466C131.987 37.3432 131.597 36.4602 130.606 36.4602C129.625 36.4602 129.196 37.2826 129.196 38.0716C129.196 38.9796 129.767 39.6664 130.577 39.6664H130.587Z" fill="white"/>
<path d="M137.154 39.1444C137.154 39.5034 137.173 39.8562 137.221 40.138H136.468L136.39 39.6162H136.363C136.115 39.9418 135.61 40.234 134.953 40.234C134.021 40.234 133.543 39.6433 133.543 39.0421C133.543 38.0381 134.534 37.4891 136.313 37.4996V37.414C136.313 37.0717 136.209 36.4455 135.266 36.4538C134.828 36.4538 134.379 36.5644 134.056 36.7627L133.866 36.2576C134.248 36.0426 134.809 35.8965 135.389 35.8965C136.808 35.8965 137.15 36.7627 137.15 37.5935V39.1444H137.154ZM136.334 38.0214C135.42 38.0047 134.382 38.1508 134.382 38.9566C134.382 39.4533 134.742 39.6767 135.162 39.6767C135.771 39.6767 136.161 39.3344 136.294 38.9816C136.324 38.9044 136.332 38.8188 136.332 38.7416V38.0214H136.334Z" fill="white"/>
<path d="M142.48 34.0508V39.0667C142.48 39.4362 142.49 39.8557 142.517 40.1396H141.764L141.727 39.4195H141.708C141.451 39.8829 140.898 40.2335 140.145 40.2335C139.031 40.2335 138.164 39.384 138.164 38.1232C138.153 36.733 139.117 35.8939 140.231 35.8939C140.946 35.8939 141.422 36.1945 141.622 36.5201H141.641V34.0508H142.48ZM141.643 37.6765C141.643 37.5742 141.635 37.4532 141.606 37.3509C141.483 36.8792 141.026 36.4846 140.396 36.4846C139.53 36.4846 139.015 37.1714 139.015 38.0794C139.015 38.9289 139.482 39.6219 140.377 39.6219C140.938 39.6219 141.453 39.2796 141.606 38.7223C141.635 38.62 141.643 38.5156 141.643 38.3967V37.6765Z" fill="white"/>
<path d="M147.765 40.2341C146.528 40.2341 145.556 39.4117 145.556 38.0988C145.556 36.7086 146.576 35.8945 147.842 35.8945C149.167 35.8945 150.062 36.7608 150.062 38.0215C150.062 39.5641 148.871 40.2341 147.778 40.2341H147.765ZM147.794 39.6664C148.593 39.6664 149.194 38.988 149.194 38.0466C149.194 37.3432 148.804 36.4602 147.813 36.4602C146.833 36.4602 146.403 37.2826 146.403 38.0716C146.403 38.9796 146.974 39.6664 147.784 39.6664H147.794Z" fill="white"/>
<path d="M151.117 37.1115C151.117 36.6731 151.106 36.3308 151.079 35.9885H151.822L151.87 36.6669H151.889C152.118 36.2807 152.65 35.8945 153.412 35.8945C154.05 35.8945 155.041 36.2369 155.041 37.6604V40.1381H154.202V37.746C154.202 37.0781 153.927 36.5124 153.136 36.5124C152.594 36.5124 152.164 36.8631 152.012 37.2847C151.974 37.3786 151.955 37.5164 151.955 37.6354V40.1402H151.117V37.1115Z" fill="white"/>
<path d="M159.429 34.9941V35.9877H160.628V36.5617H159.429V38.7994C159.429 39.3129 159.592 39.6051 160.057 39.6051C160.284 39.6051 160.418 39.5884 160.543 39.5529L160.581 40.127C160.418 40.1791 160.161 40.2292 159.838 40.2292C159.448 40.2292 159.133 40.1082 158.933 39.912C158.703 39.6803 158.609 39.3108 158.609 38.8224V36.5576H157.896V35.9835H158.609V35.2196L159.429 34.9941Z" fill="white"/>
<path d="M161.572 34.0508H162.411V36.6412H162.43C162.563 36.4262 162.772 36.23 163.031 36.1089C163.279 35.9712 163.573 35.8939 163.888 35.8939C164.505 35.8939 165.496 36.2362 165.496 37.6682V40.1375H164.658V37.7538C164.658 37.0754 164.382 36.518 163.592 36.518C163.049 36.518 162.63 36.8604 162.467 37.2737C162.419 37.3759 162.409 37.4887 162.409 37.6348V40.1396H161.57V34.0508H161.572Z" fill="white"/>
<path d="M167.333 38.1913C167.352 39.212 168.068 39.6316 168.904 39.6316C169.505 39.6316 169.876 39.5376 170.181 39.4249L170.333 39.9572C170.037 40.0783 169.524 40.2223 168.79 40.2223C167.379 40.2223 166.522 39.3727 166.522 38.1308C166.522 36.87 167.35 35.8848 168.694 35.8848C170.198 35.8848 170.588 37.0766 170.588 37.8406C170.588 37.9951 170.579 38.1141 170.561 38.1996L167.333 38.1913ZM169.782 37.6507C169.791 37.1789 169.563 36.4233 168.629 36.4233C167.772 36.4233 167.411 37.1267 167.344 37.6507H169.782Z" fill="white"/>
<defs>
<filter id="filter0_d_1074_76290" x="0.267578" y="0.24" width="222.732" height="130" filterUnits="userSpaceOnUse" color-interpolation-filters="sRGB">
<feFlood flood-opacity="0" result="BackgroundImageFix"/>
<feColorMatrix in="SourceAlpha" type="matrix" values="0 0 0 0 0 0 0 0 0 0 0 0 0 0 0 0 0 0 127 0" result="hardAlpha"/>
<feOffset dx="-12" dy="19.24"/>
<feGaussianBlur stdDeviation="20"/>
<feColorMatrix type="matrix" values="0 0 0 0 0.304167 0 0 0 0 0.257274 0 0 0 0 0.259954 0 0 0 0.08 0"/>
<feBlend mode="normal" in2="BackgroundImageFix" result="effect1_dropShadow_1074_76290"/>
<feBlend mode="normal" in="SourceGraphic" in2="effect1_dropShadow_1074_76290" result="shape"/>
</filter>
</defs>
</svg>
